<?xml version="1.0" standalone="no"?>
<!DOCTYPE svg PUBLIC "-//W3C//DTD SVG 20010904//EN"
 "http://www.w3.org/TR/2001/REC-SVG-20010904/DTD/svg10.dtd">
<svg version="1.0" xmlns="http://www.w3.org/2000/svg"
 width="220.000000pt" height="220.000000pt" viewBox="0 0 220.000000 220.000000"
 preserveAspectRatio="xMidYMid meet">
<metadata>
Created by potrace 1.11, written by Peter Selinger 2001-2013
</metadata>
<g transform="translate(0.000000,220.000000) scale(0.100000,-0.100000)"
fill="#000000" stroke="none">
<path d="M1810 2186 c0 -8 7 -16 15 -20 8 -3 15 -14 15 -24 0 -10 18 -36 40
-57 22 -21 40 -48 40 -60 0 -11 9 -28 20 -38 15 -12 20 -29 20 -62 0 -38 3
-45 20 -45 14 0 20 -7 20 -21 0 -18 5 -20 43 -17 33 2 42 7 41 21 -2 19 11 23
21 7 4 -6 -1 -23 -11 -38 l-17 -27 22 20 c16 13 24 16 29 8 11 -17 30 -2 52
42 17 34 20 59 20 182 l0 143 -195 0 c-160 0 -195 -2 -195 -14z"/>
<path d="M1015 1908 c2 -7 18 -71 35 -143 23 -93 31 -147 28 -192 l-3 -63 33
0 32 0 0 68 c0 46 11 106 35 191 19 69 35 131 35 138 0 8 -12 13 -33 13 -32 0
-33 -1 -48 -67 l-15 -68 -11 40 c-6 22 -14 52 -17 68 -5 23 -11 27 -41 27 -23
0 -33 -4 -30 -12z"/>
<path d="M883 1889 c-59 -18 -63 -22 -63 -50 0 -26 3 -29 24 -23 21 5 26 1 34
-28 5 -18 28 -94 52 -170 l43 -136 28 10 c16 5 29 11 29 13 0 1 -23 76 -50
166 -50 160 -50 164 -31 179 15 11 17 20 10 38 -4 12 -10 22 -11 21 -2 0 -31
-9 -65 -20z"/>
<path d="M10 1872 c21 -14 85 -23 73 -11 -5 5 -27 12 -49 15 -27 4 -34 2 -24
-4z"/>
<path d="M1364 1747 c-37 -62 -85 -139 -106 -171 -21 -33 -38 -64 -38 -71 0
-20 88 -58 118 -50 38 9 121 101 160 176 52 103 42 163 -32 207 l-35 21 -67
-112z m106 -9 c0 -54 -119 -228 -156 -228 -21 0 -18 8 34 87 26 39 59 92 74
117 30 50 48 59 48 24z"/>
<path d="M2100 1801 c-8 -6 -18 -7 -22 -5 -4 3 -5 -2 -2 -10 5 -14 8 -14 21
-1 8 9 19 13 24 10 5 -4 9 -1 9 4 0 13 -10 14 -30 2z"/>
<path d="M648 1769 c-10 -5 -18 -15 -18 -20 0 -6 25 -47 55 -90 30 -43 81
-116 112 -161 31 -45 53 -79 47 -76 -27 16 -397 128 -402 123 -4 -4 18 -30 49
-59 31 -28 102 -93 157 -144 l101 -93 16 25 c13 20 14 28 4 44 -16 26 2 52 37
52 13 0 25 8 29 18 3 9 33 34 66 54 54 35 58 39 47 58 -15 24 -27 25 -53 6
-20 -14 -30 -2 -189 232 -31 46 -33 46 -58 31z m54 -362 c20 -9 25 -16 19 -26
-8 -12 -15 -9 -41 12 -33 28 -24 34 22 14z"/>
<path d="M1625 1628 c-49 -17 -159 -94 -203 -142 -52 -57 -61 -89 -35 -124 37
-50 99 -42 199 24 82 54 142 110 155 142 13 33 -13 89 -46 102 -31 12 -31 12
-70 -2z m61 -59 c15 -25 -161 -163 -225 -175 -33 -7 -36 -3 -21 26 17 32 202
160 232 160 4 0 10 -5 14 -11z"/>
<path d="M1014 1432 c-109 -38 -181 -130 -193 -249 -7 -59 0 -82 12 -48 4 8
24 26 47 40 22 14 40 32 40 39 0 8 6 17 13 19 6 3 2 6 -11 6 -15 1 -21 -3 -16
-10 4 -8 -1 -9 -17 -4 -32 10 -32 10 -20 33 6 10 25 25 43 32 18 8 49 24 68
37 19 13 46 23 60 23 17 0 21 3 12 9 -19 12 61 69 107 77 62 10 58 12 -19 13
-47 0 -94 -6 -126 -17z"/>
<path d="M1232 1427 c10 -8 14 -18 10 -22 -4 -5 -1 -5 6 -1 9 5 12 3 11 -5 -2
-8 3 -31 10 -52 7 -21 10 -41 7 -44 -3 -3 1 -11 8 -17 14 -10 66 -129 66 -148
0 -17 -35 -2 -58 25 -13 15 -30 27 -37 27 -12 0 -31 -48 -22 -57 3 -2 8 8 11
22 8 33 25 28 53 -16 13 -19 30 -43 38 -54 8 -10 15 -22 15 -25 0 -3 -28 -33
-62 -67 -57 -55 -148 -115 -148 -96 0 4 -5 2 -12 -5 -7 -7 -20 -12 -30 -12
-16 0 -18 6 -13 33 3 17 1 46 -4 62 l-8 30 -12 -28 c-12 -30 -32 -32 -43 -4
-4 10 -13 15 -18 12 -7 -4 -9 2 -4 19 5 22 3 26 -16 26 -14 0 -19 4 -14 13 6
9 3 8 -8 -1 -19 -15 -103 -7 -127 12 -8 6 3 -13 24 -43 114 -158 309 -186 445
-64 94 84 122 220 68 333 -28 57 -92 132 -131 150 -20 10 -20 10 -5 -3z"/>
<path d="M96 1414 c-5 -14 -4 -15 9 -4 17 14 19 20 6 20 -5 0 -12 -7 -15 -16z"/>
<path d="M45 1391 c-28 -6 -28 -7 -8 -13 13 -4 27 0 34 8 6 8 10 13 8 13 -2
-1 -17 -4 -34 -8z"/>
<path d="M63 1359 c-35 -23 -63 -45 -63 -50 0 -5 9 -13 19 -19 23 -12 42 -13
23 -1 -10 6 -1 16 33 35 26 15 44 30 42 33 -3 2 -24 -7 -46 -21 -23 -15 -41
-22 -41 -17 0 5 23 23 50 41 43 27 58 40 48 40 -2 0 -31 -19 -65 -41z"/>
<path d="M1650 1365 c-98 -16 -177 -56 -195 -98 -17 -40 -4 -104 22 -114 9 -3
58 2 110 12 l95 18 -5 39 c-6 46 -4 43 -39 52 -25 6 -28 4 -28 -18 0 -21 -6
-25 -51 -31 -60 -8 -73 0 -41 26 46 37 207 70 267 55 22 -6 26 -11 22 -31 -4
-22 -1 -25 24 -25 25 0 29 4 29 30 0 18 -10 41 -27 60 -33 36 -82 43 -183 25z"/>
<path d="M0 1350 c0 -5 7 -7 15 -4 19 8 19 14 0 14 -8 0 -15 -4 -15 -10z"/>
<path d="M112 1328 c-29 -17 -51 -32 -49 -34 5 -5 95 45 102 57 8 12 7 12 -53
-23z"/>
<path d="M1117 1339 c7 -7 15 -10 18 -7 3 3 -2 9 -12 12 -14 6 -15 5 -6 -5z"/>
<path d="M350 1299 c0 -32 39 -95 67 -108 39 -18 90 -13 143 14 76 39 108 34
131 -21 12 -28 17 -31 38 -23 20 8 23 14 17 42 -3 17 -20 44 -36 60 -39 35
-93 36 -160 2 -27 -14 -63 -25 -80 -25 -27 0 -34 6 -48 40 -14 33 -22 40 -44
40 -22 0 -28 -5 -28 -21z"/>
<path d="M102 1293 c-6 -2 -9 -10 -5 -16 4 -7 0 -8 -13 -3 -10 4 -15 4 -11 -1
15 -14 66 -11 79 5 10 12 10 14 1 8 -7 -4 -13 -2 -13 3 0 11 -16 13 -38 4z"/>
<path d="M225 1293 c-11 -3 -24 -10 -30 -15 -12 -13 35 0 50 13 5 5 7 8 5 8
-3 -1 -14 -3 -25 -6z"/>
<path d="M153 1263 c-7 -3 -13 -11 -13 -18 0 -17 43 -32 48 -16 2 6 14 8 27 5
12 -3 26 -1 29 5 5 7 -7 11 -33 11 -21 0 -41 4 -43 9 -1 4 -9 6 -15 4z"/>
<path d="M0 1209 c0 -49 27 -120 51 -135 8 -4 9 -3 5 4 -15 24 14 11 49 -23
20 -18 34 -26 30 -17 -16 42 -55 166 -55 177 0 11 -25 27 -62 39 -16 5 -18 -2
-18 -45z"/>
<path d="M270 1250 c-13 -9 -13 -10 0 -10 8 0 22 5 30 10 13 9 13 10 0 10 -8
0 -22 -5 -30 -10z"/>
<path d="M270 1200 c0 -11 -5 -20 -12 -20 -7 0 -5 -5 4 -12 9 -7 18 -22 21
-33 4 -15 5 -13 6 8 1 24 5 27 39 28 l37 2 -40 7 c-39 6 -39 6 -10 12 l30 5
-33 2 c-19 0 -31 5 -27 11 3 6 1 10 -4 10 -6 0 -11 -9 -11 -20z"/>
<path d="M215 1200 c3 -5 10 -10 16 -10 5 0 9 5 9 10 0 6 -7 10 -16 10 -8 0
-12 -4 -9 -10z"/>
<path d="M1070 1170 c0 -5 5 -10 10 -10 6 0 10 5 10 10 0 6 -4 10 -10 10 -5 0
-10 -4 -10 -10z"/>
<path d="M393 1163 c9 -2 25 -2 35 0 9 3 1 5 -18 5 -19 0 -27 -2 -17 -5z"/>
<path d="M141 1130 c15 -45 24 -54 15 -15 -4 17 -12 34 -17 40 -5 5 -4 -6 2
-25z"/>
<path d="M120 1125 c0 -5 5 -17 10 -25 5 -8 10 -10 10 -5 0 6 -5 17 -10 25 -5
8 -10 11 -10 5z"/>
<path d="M217 1106 c4 -20 3 -27 -6 -22 -6 4 -11 15 -12 24 0 9 -3 12 -5 6 -3
-6 5 -31 16 -55 11 -24 18 -33 15 -19 -3 16 2 11 14 -15 l20 -40 -6 35 c-3 19
-14 53 -24 75 -14 32 -17 34 -12 11z"/>
<path d="M338 1123 c6 -2 18 -2 25 0 6 3 1 5 -13 5 -14 0 -19 -2 -12 -5z"/>
<path d="M1077 1103 c3 -7 9 -10 14 -7 14 8 11 21 -5 21 -8 0 -12 -6 -9 -14z"/>
<path d="M1216 1097 c3 -10 9 -15 12 -12 3 3 0 11 -7 18 -10 9 -11 8 -5 -6z"/>
<path d="M1243 1059 c2 -24 0 -50 -6 -57 -5 -7 -7 -15 -3 -19 3 -3 6 -1 6 6 0
7 5 9 10 6 11 -7 6 92 -5 103 -3 3 -4 -14 -2 -39z"/>
<path d="M1055 1070 c3 -5 8 -10 11 -10 2 0 4 5 4 10 0 6 -5 10 -11 10 -5 0
-7 -4 -4 -10z"/>
<path d="M275 999 c8 -28 17 -54 21 -58 4 -3 4 2 1 11 -3 9 -9 33 -13 52 -3
20 -10 38 -14 41 -5 3 -2 -18 5 -46z"/>
<path d="M1155 1030 c-4 -6 1 -7 11 -3 13 5 15 2 10 -18 -6 -20 -5 -21 4 -6
11 17 6 37 -10 37 -5 0 -12 -4 -15 -10z"/>
<path d="M1200 1031 c0 -6 4 -13 10 -16 6 -3 7 1 4 9 -7 18 -14 21 -14 7z"/>
<path d="M1090 1022 c0 -4 9 -8 20 -9 11 -1 18 2 15 8 -7 11 -35 12 -35 1z"/>
<path d="M1036 1004 c-8 -21 -4 -25 14 -14 11 7 12 12 4 20 -8 8 -13 7 -18 -6z"/>
<path d="M311 949 c5 -28 11 -54 15 -58 10 -9 -5 92 -15 102 -4 4 -5 -15 0
-44z"/>
<path d="M600 985 c-127 -36 -190 -97 -190 -181 0 -33 42 -74 76 -74 29 0 94
35 94 51 0 5 -13 0 -29 -12 -94 -69 -92 76 2 158 125 109 335 64 283 -60 -20
-50 -66 -74 -129 -69 -16 2 -14 8 15 49 18 25 48 55 66 66 17 10 32 21 32 24
0 8 -64 -9 -100 -27 -44 -23 -85 -66 -140 -149 -96 -144 -180 -204 -220 -156
-10 12 -10 18 0 30 16 19 1 39 -26 33 -12 -2 -20 -13 -22 -31 -3 -23 2 -30 32
-42 19 -8 51 -15 69 -15 77 0 185 70 242 155 39 60 42 61 69 42 17 -13 17 -16
-8 -69 -31 -66 -32 -82 -6 -108 28 -28 80 -26 113 4 l26 24 16 -24 c19 -29 49
-31 91 -5 30 18 31 18 42 0 14 -22 52 -25 90 -5 24 12 30 12 47 0 10 -8 35
-14 54 -13 32 0 33 1 14 9 -13 5 -23 15 -23 21 0 35 121 179 149 179 36 0 2
-83 -62 -156 -40 -45 -41 -53 -6 -31 17 10 22 9 30 -5 18 -32 94 -15 130 28
13 15 14 15 19 -6 9 -40 35 -48 80 -24 38 21 39 21 56 3 37 -41 132 -13 193
57 72 82 65 144 -18 144 -54 0 -123 -48 -166 -115 -24 -36 -42 -55 -55 -55
-11 0 -20 4 -20 9 0 10 43 75 76 114 32 38 30 47 -9 47 -27 0 -39 -8 -72 -52
-71 -91 -107 -128 -126 -128 -34 0 -20 32 66 159 47 69 85 128 85 133 0 4 -17
8 -38 8 -35 0 -40 -4 -77 -63 l-39 -63 -56 1 c-71 0 -128 -35 -169 -103 -37
-60 -69 -95 -81 -87 -19 12 -10 41 35 113 l44 73 -42 0 c-23 1 -62 2 -87 2
-60 2 -100 -27 -155 -113 -70 -109 -122 -108 -91 1 15 56 15 64 1 85 -15 23
-14 24 5 24 39 0 100 39 118 76 15 32 15 38 2 62 -25 46 -92 72 -180 71 -41 0
-95 -7 -120 -14z m447 -248 c-37 -67 -87 -127 -107 -127 -11 0 -20 7 -20 15 0
51 110 179 133 156 8 -8 7 -20 -6 -44z m729 38 c16 -40 -92 -180 -134 -173
-21 3 -21 3 -2 45 19 42 105 143 122 143 5 0 11 -7 14 -15z"/>
<path d="M1197 980 c-5 -20 -37 -29 -37 -10 0 6 -4 10 -10 10 -5 0 -9 -3 -9
-7 4 -22 -3 -25 -17 -7 -15 18 -15 18 -5 -3 6 -12 8 -30 4 -40 -7 -17 -6 -17
17 0 14 9 35 21 46 26 20 9 40 51 24 51 -4 0 -10 -9 -13 -20z m-45 -42 c-7 -7
-12 -8 -12 -2 0 14 12 26 19 19 2 -3 -1 -11 -7 -17z"/>
<path d="M1590 906 c-21 -26 -8 -61 24 -64 43 -5 61 32 30 62 -19 20 -38 20
-54 2z"/>
<path d="M349 485 c-3 -22 -2 -53 2 -70 5 -23 7 -25 8 -8 1 28 21 41 21 14 0
-11 5 -23 10 -26 6 -4 10 18 10 60 0 42 -4 64 -10 60 -5 -3 -10 -17 -10 -31 0
-36 -18 -29 -22 9 -3 32 -3 32 -9 -8z"/>
<path d="M930 455 c0 -37 4 -65 10 -65 6 0 10 11 10 25 0 14 5 25 10 25 6 0
10 -11 10 -25 0 -14 5 -25 10 -25 6 0 10 28 10 65 0 37 -4 65 -10 65 -5 0 -10
-13 -10 -30 0 -16 -4 -30 -10 -30 -5 0 -10 14 -10 30 0 17 -4 30 -10 30 -6 0
-10 -28 -10 -65z"/>
<path d="M1370 455 c0 -37 4 -65 10 -65 6 0 10 28 10 65 0 37 -4 65 -10 65 -6
0 -10 -28 -10 -65z"/>
<path d="M450 445 c0 -31 4 -55 10 -55 6 0 10 23 9 55 -1 30 -6 55 -11 55 -4
0 -8 -25 -8 -55z"/>
<path d="M510 445 c0 -51 2 -55 23 -54 12 0 16 3 10 6 -8 3 -13 24 -13 54 0
27 -4 49 -10 49 -5 0 -10 -25 -10 -55z"/>
<path d="M598 445 c2 -30 8 -55 12 -55 4 0 10 25 12 55 2 44 0 55 -12 55 -12
0 -14 -11 -12 -55z"/>
<path d="M675 479 c-12 -36 3 -89 25 -89 20 0 28 31 21 83 -4 33 -36 37 -46 6z
m35 -33 c0 -19 -4 -38 -10 -41 -6 -4 -10 10 -10 34 0 23 5 41 10 41 6 0 10
-15 10 -34z"/>
<path d="M771 448 c-1 -33 3 -58 9 -58 6 0 10 10 10 23 1 22 1 22 15 -3 14
-24 14 -22 15 33 0 35 -4 56 -10 52 -5 -3 -7 -12 -3 -20 9 -24 -13 -17 -25 8
-9 19 -11 13 -11 -35z"/>
<path d="M1038 469 c-6 -41 1 -79 16 -79 6 0 11 14 12 30 1 17 -2 30 -7 30 -9
0 -7 20 4 38 5 7 3 12 -6 12 -9 0 -17 -13 -19 -31z"/>
<path d="M1135 465 c-4 -22 -12 -46 -18 -52 -11 -15 -11 -14 26 -19 31 -3 33
7 13 71 l-13 40 -8 -40z"/>
<path d="M1220 444 c0 -46 3 -55 17 -52 39 7 38 108 -2 108 -12 0 -15 -13 -15
-56z m30 1 c0 -19 -4 -35 -10 -35 -5 0 -10 16 -10 35 0 19 5 35 10 35 6 0 10
-16 10 -35z"/>
<path d="M1447 493 c-11 -10 -8 -48 5 -61 8 -8 8 -15 -2 -27 -10 -12 -10 -15
4 -15 19 0 21 31 5 61 -7 15 -7 24 2 35 11 14 -1 21 -14 7z"/>
<path d="M1520 445 c0 -37 4 -55 13 -55 8 0 11 16 9 55 -5 71 -22 71 -22 0z"/>
<path d="M1617 472 c-3 -16 -9 -41 -12 -55 -6 -21 -3 -24 20 -24 25 0 26 1 20
41 -10 60 -21 74 -28 38z"/>
<path d="M1700 448 c0 -36 4 -58 11 -58 6 0 9 7 5 15 -9 24 10 17 22 -7 9 -19
11 -13 11 40 1 35 -3 62 -9 62 -5 0 -10 -10 -10 -22 -1 -23 -1 -23 -15 2 -14
24 -14 22 -15 -32z"/>
<path d="M1790 445 c0 -52 2 -56 22 -53 42 6 42 100 0 106 -20 3 -22 -1 -22
-53z m40 -7 c0 -9 -4 -20 -10 -23 -6 -4 -10 9 -10 32 0 28 3 34 10 23 5 -8 10
-23 10 -32z"/>
<path d="M606 333 c-5 -11 -10 -14 -14 -6 -5 8 -11 7 -19 -3 -8 -8 -9 -15 -3
-19 6 -3 10 0 10 7 0 10 2 10 9 -1 7 -11 11 -9 21 9 6 12 10 24 7 26 -2 3 -8
-3 -11 -13z"/>
<path d="M868 325 c2 -14 6 -25 7 -25 1 0 5 11 7 25 3 16 1 25 -7 25 -8 0 -10
-9 -7 -25z"/>
<path d="M981 318 l1 -33 7 30 c4 20 9 26 14 18 5 -7 5 -19 1 -25 -5 -10 -4
-10 6 -1 11 10 11 15 0 28 -20 24 -30 18 -29 -17z"/>
<path d="M1324 335 c-3 -8 -4 -20 -1 -27 3 -7 6 -3 6 9 1 12 7 24 14 26 9 4 9
6 -1 6 -7 1 -15 -6 -18 -14z"/>
<path d="M1546 343 c-12 -12 -6 -40 9 -40 8 0 15 8 15 18 0 20 -14 32 -24 22z"/>
<path d="M1611 324 c-6 -15 -10 -29 -7 -31 2 -2 7 5 11 17 6 20 7 21 21 3 14
-16 14 -16 3 7 -6 14 -13 26 -14 28 -1 1 -7 -10 -14 -24z"/>
<path d="M1695 337 c18 -14 13 -43 -6 -32 -5 4 -9 1 -9 -4 0 -16 16 -13 30 4
10 12 10 18 0 30 -7 8 -17 15 -23 15 -6 0 -3 -6 8 -13z"/>
<path d="M1795 340 c-3 -5 0 -7 8 -4 19 7 33 -14 19 -28 -8 -8 -16 -7 -29 2
-17 13 -17 13 0 -5 16 -18 18 -18 34 -3 13 14 14 20 3 32 -14 18 -26 20 -35 6z"/>
<path d="M390 331 c0 -7 -4 -9 -10 -6 -5 3 -10 2 -10 -4 0 -5 5 -13 10 -16 6
-3 10 -1 10 6 0 9 3 9 14 0 11 -9 15 -8 20 5 4 9 4 19 1 22 -3 3 -5 0 -5 -8 0
-10 -3 -10 -15 0 -11 9 -15 9 -15 1z"/>
<path d="M461 335 c0 -5 3 -16 8 -24 6 -10 10 -10 16 -1 6 9 9 9 15 0 5 -8 9
-7 13 5 4 9 3 13 -3 10 -6 -3 -10 -1 -10 6 0 9 -3 9 -14 0 -11 -9 -15 -9 -19
1 -3 7 -6 9 -6 3z"/>
<path d="M750 319 c-12 -22 -12 -23 3 -10 14 11 17 11 17 1 0 -8 3 -11 6 -7 3
3 1 13 -4 23 -9 16 -11 15 -22 -7z"/>
<path d="M920 331 c0 -3 4 -12 9 -19 6 -11 9 -9 13 5 3 12 0 20 -8 20 -8 0
-14 -3 -14 -6z"/>
<path d="M1052 320 c0 -14 2 -19 5 -12 2 6 2 18 0 25 -3 6 -5 1 -5 -13z"/>
<path d="M1092 320 c0 -14 2 -19 5 -12 2 6 2 18 0 25 -3 6 -5 1 -5 -13z"/>
<path d="M1132 320 c0 -14 2 -19 5 -12 2 6 2 18 0 25 -3 6 -5 1 -5 -13z"/>
<path d="M1251 324 c-1 -12 6 -25 15 -28 13 -5 14 -3 7 6 -6 7 -13 20 -16 28
-4 10 -6 8 -6 -6z"/>
<path d="M1362 320 c0 -14 2 -19 5 -12 2 6 2 18 0 25 -3 6 -5 1 -5 -13z"/>
<path d="M1406 325 c-9 -25 -6 -43 4 -20 5 11 9 14 9 6 1 -11 4 -11 16 -1 8 7
15 18 15 24 0 6 -5 4 -10 -4 -8 -12 -12 -13 -19 -2 -6 11 -10 10 -15 -3z"/>
<path d="M696 316 c6 -15 4 -17 -6 -11 -9 6 -11 4 -5 -4 5 -9 10 -10 18 -2 8
8 7 14 -2 24 -10 10 -11 8 -5 -7z"/>
<path d="M1165 310 c3 -5 8 -10 11 -10 2 0 4 5 4 10 0 6 -5 10 -11 10 -5 0 -7
-4 -4 -10z"/>
</g>
</svg>
